<mxfile host="app.diagrams.net" agent="Mozilla/5.0 (X11; Linux x86_64) AppleWebKit/537.36 (KHTML, like Gecko) Chrome/134.0.0.0 Safari/537.36" version="26.2.14">
  <diagram name="Страница — 1" id="VyiUVduKPw6NLFhmFpfm">
    <mxGraphModel dx="3727" dy="1534" grid="1" gridSize="10" guides="1" tooltips="1" connect="1" arrows="1" fold="1" page="1" pageScale="1" pageWidth="1169" pageHeight="827" math="0" shadow="0">
      <root>
        <mxCell id="0" />
        <mxCell id="1" parent="0" />
        <mxCell id="Tn00hhb-muNHMIPBsEzj-2" value="Пользователь&lt;div&gt;&lt;br&gt;&lt;/div&gt;" style="shape=umlActor;verticalLabelPosition=bottom;verticalAlign=top;html=1;outlineConnect=0;" vertex="1" parent="1">
          <mxGeometry x="-2000" y="100" width="30" height="60" as="geometry" />
        </mxCell>
        <mxCell id="Tn00hhb-muNHMIPBsEzj-37" style="edgeStyle=orthogonalEdgeStyle;rounded=0;orthogonalLoop=1;jettySize=auto;html=1;exitX=1;exitY=0;exitDx=0;exitDy=0;entryX=1;entryY=0.5;entryDx=0;entryDy=0;dashed=1;" edge="1" parent="1" source="Tn00hhb-muNHMIPBsEzj-23" target="Tn00hhb-muNHMIPBsEzj-25">
          <mxGeometry relative="1" as="geometry">
            <Array as="points">
              <mxPoint x="-1690" y="102" />
              <mxPoint x="-1690" y="30" />
            </Array>
          </mxGeometry>
        </mxCell>
        <mxCell id="Tn00hhb-muNHMIPBsEzj-38" value="&amp;lt;include&amp;gt;" style="edgeLabel;html=1;align=center;verticalAlign=middle;resizable=0;points=[];" vertex="1" connectable="0" parent="Tn00hhb-muNHMIPBsEzj-37">
          <mxGeometry x="0.3129" y="-2" relative="1" as="geometry">
            <mxPoint x="-2" y="16" as="offset" />
          </mxGeometry>
        </mxCell>
        <mxCell id="Tn00hhb-muNHMIPBsEzj-39" style="edgeStyle=orthogonalEdgeStyle;rounded=0;orthogonalLoop=1;jettySize=auto;html=1;exitX=1;exitY=0.5;exitDx=0;exitDy=0;entryX=0;entryY=0.5;entryDx=0;entryDy=0;dashed=1;" edge="1" parent="1" source="Tn00hhb-muNHMIPBsEzj-23" target="Tn00hhb-muNHMIPBsEzj-36">
          <mxGeometry relative="1" as="geometry" />
        </mxCell>
        <mxCell id="Tn00hhb-muNHMIPBsEzj-40" value="&amp;lt;include&amp;gt;" style="edgeLabel;html=1;align=center;verticalAlign=middle;resizable=0;points=[];" vertex="1" connectable="0" parent="Tn00hhb-muNHMIPBsEzj-39">
          <mxGeometry x="-0.236" relative="1" as="geometry">
            <mxPoint x="8" as="offset" />
          </mxGeometry>
        </mxCell>
        <mxCell id="Tn00hhb-muNHMIPBsEzj-23" value="Запуск алгоритма для расчета" style="ellipse;whiteSpace=wrap;html=1;" vertex="1" parent="1">
          <mxGeometry x="-1830" y="90" width="120" height="80" as="geometry" />
        </mxCell>
        <mxCell id="Tn00hhb-muNHMIPBsEzj-24" value="" style="endArrow=none;html=1;rounded=0;entryX=0;entryY=0.5;entryDx=0;entryDy=0;" edge="1" parent="1" target="Tn00hhb-muNHMIPBsEzj-23">
          <mxGeometry width="50" height="50" relative="1" as="geometry">
            <mxPoint x="-1960" y="130" as="sourcePoint" />
            <mxPoint x="-1850" y="170" as="targetPoint" />
          </mxGeometry>
        </mxCell>
        <mxCell id="Tn00hhb-muNHMIPBsEzj-25" value="Ввод городов" style="ellipse;whiteSpace=wrap;html=1;" vertex="1" parent="1">
          <mxGeometry x="-1830" y="-10" width="120" height="80" as="geometry" />
        </mxCell>
        <mxCell id="Tn00hhb-muNHMIPBsEzj-26" value="Ввести города вручную" style="ellipse;whiteSpace=wrap;html=1;" vertex="1" parent="1">
          <mxGeometry x="-1730" y="-140" width="120" height="80" as="geometry" />
        </mxCell>
        <mxCell id="Tn00hhb-muNHMIPBsEzj-27" value="Сгенерировать случайные города" style="ellipse;whiteSpace=wrap;html=1;" vertex="1" parent="1">
          <mxGeometry x="-1940" y="-140" width="120" height="80" as="geometry" />
        </mxCell>
        <mxCell id="Tn00hhb-muNHMIPBsEzj-29" value="" style="endArrow=classic;html=1;rounded=0;exitX=0.5;exitY=1;exitDx=0;exitDy=0;entryX=0;entryY=0;entryDx=0;entryDy=0;dashed=1;" edge="1" parent="1" source="Tn00hhb-muNHMIPBsEzj-27" target="Tn00hhb-muNHMIPBsEzj-25">
          <mxGeometry width="50" height="50" relative="1" as="geometry">
            <mxPoint x="-1520" y="100" as="sourcePoint" />
            <mxPoint x="-1470" y="50" as="targetPoint" />
          </mxGeometry>
        </mxCell>
        <mxCell id="Tn00hhb-muNHMIPBsEzj-31" value="" style="endArrow=classic;html=1;rounded=0;exitX=0;exitY=1;exitDx=0;exitDy=0;entryX=0.601;entryY=0.018;entryDx=0;entryDy=0;entryPerimeter=0;dashed=1;" edge="1" parent="1" source="Tn00hhb-muNHMIPBsEzj-26" target="Tn00hhb-muNHMIPBsEzj-25">
          <mxGeometry width="50" height="50" relative="1" as="geometry">
            <mxPoint x="-1520" y="100" as="sourcePoint" />
            <mxPoint x="-1470" y="50" as="targetPoint" />
          </mxGeometry>
        </mxCell>
        <mxCell id="Tn00hhb-muNHMIPBsEzj-32" value="&amp;lt;extend&amp;gt;" style="text;html=1;align=center;verticalAlign=middle;resizable=0;points=[];autosize=1;strokeColor=none;fillColor=none;rotation=45;" vertex="1" parent="1">
          <mxGeometry x="-1870" y="-50" width="70" height="30" as="geometry" />
        </mxCell>
        <mxCell id="Tn00hhb-muNHMIPBsEzj-34" value="&amp;lt;extend&amp;gt;" style="text;html=1;align=center;verticalAlign=middle;resizable=0;points=[];autosize=1;strokeColor=none;fillColor=none;rotation=-55;" vertex="1" parent="1">
          <mxGeometry x="-1760" y="-50" width="70" height="30" as="geometry" />
        </mxCell>
        <mxCell id="Tn00hhb-muNHMIPBsEzj-35" value="" style="endArrow=none;html=1;rounded=0;entryX=0;entryY=0.5;entryDx=0;entryDy=0;" edge="1" parent="1" target="Tn00hhb-muNHMIPBsEzj-25">
          <mxGeometry width="50" height="50" relative="1" as="geometry">
            <mxPoint x="-1950" y="110" as="sourcePoint" />
            <mxPoint x="-1370" y="170" as="targetPoint" />
          </mxGeometry>
        </mxCell>
        <mxCell id="Tn00hhb-muNHMIPBsEzj-36" value="Отображение графа с маршрутом" style="ellipse;whiteSpace=wrap;html=1;" vertex="1" parent="1">
          <mxGeometry x="-1610" y="90" width="120" height="80" as="geometry" />
        </mxCell>
      </root>
    </mxGraphModel>
  </diagram>
</mxfile>
